<svg id="Layer_1" enable-background="new 0 0 512 512" height="512" viewBox="0 0 512 512" width="512" xmlns="http://www.w3.org/2000/svg"><g><g><path d="m360.359 504.163h-235.736v-16.371c0-13.807 11.193-25 25-25h185.736c13.807 0 25 11.193 25 25z" fill="#2d4456"/><path d="m124.682 486.163c-.035.539-.059 1.081-.059 1.629v16.371h235.736v-16.371c0-.548-.024-1.09-.059-1.629z" fill="#253847"/><path d="m224.601 417.391c-.023 0-.037 0-.06 0-.049 0-.099-.002-.148-.002v45.402h36.197v-48.118c-11.805 1.795-23.826 2.718-35.989 2.718z" fill="#d5e0f2"/><path d="m224.601 417.391c-.023 0-.037 0-.06 0-.049 0-.099-.002-.148-.002v18c.049 0 .099.002.148.002h.06c12.163-.001 24.184-.923 35.988-2.717v-18c-11.804 1.794-23.825 2.717-35.988 2.717z" fill="#bdcde5"/><path d="m391.561 13.992c-2.677-2.678-6.308-4.181-10.094-4.181s-7.417 1.504-10.094 4.181l-34.885 34.886c7.273 6.162 14.029 12.912 20.198 20.178l24.443-24.443c33.068 37.844 51.127 85.789 51.139 136.508.014 55.498-21.585 107.669-60.818 146.902-39.221 39.221-91.37 60.818-146.849 60.818-.017 0-.036 0-.053 0-50.717-.012-98.664-18.071-136.507-51.139l24.452-24.452c-7.273-6.162-14.029-12.912-20.198-20.178l-34.875 34.874c-2.677 2.677-4.181 6.308-4.181 10.094s1.504 7.417 4.181 10.094c44.645 44.646 103.997 69.242 167.121 69.258h.06c63.101-.003 122.426-24.569 167.037-69.18 44.627-44.627 69.196-103.97 69.18-167.097-.015-63.126-24.611-122.477-69.257-167.123z" fill="#e4eef9"/><g><path d="m391.639 330.211c-44.611 44.611-103.936 69.177-167.037 69.18-.023 0-.037 0-.06 0-63.124-.016-122.476-24.612-167.121-69.258-.349-.349-.675-.715-.983-1.094-2.058 2.533-3.198 5.707-3.198 9 0 3.786 1.504 7.417 4.181 10.094 44.645 44.646 103.997 69.242 167.121 69.258h.06c63.101-.003 122.426-24.569 167.037-69.18 44.627-44.627 69.196-103.97 69.18-167.097-.001-2.989-.075-5.967-.185-8.939-2.222 59.727-26.511 115.551-68.995 158.036z" fill="#d5e0f2"/></g><ellipse cx="224.491" cy="181.063" fill="#86dcff" rx="173.31" ry="173.226"/><ellipse cx="224.491" cy="181.063" fill="#86dcff" rx="173.31" ry="173.226"/><path d="m224.491 336.289c-92.696 0-168.394-72.739-173.079-164.226-.153 2.981-.231 5.981-.231 9 0 95.67 77.594 173.226 173.31 173.226 95.717 0 173.31-77.556 173.31-173.226 0-3.019-.078-6.019-.231-9-4.685 91.487-80.383 164.226-173.079 164.226z" fill="#56caed"/><path d="m302.555 26.373c-23.461-11.852-49.981-18.536-78.064-18.536-53.126 0-100.66 23.9-132.451 61.521 8.569 18.024 24.123 36.468 51.46 32.85 51.307-6.791 73.942-.755 74.697 27.917.755 28.671 17.354 56.313 46.78 56.313s-2.931-36.922 5.369-50.286 33.498-10.746 38.393-27.325c5.986-20.274-34.708-35.29-18.863-53.398 5.77-6.596 9.838-17.657 12.679-29.056z" fill="#67b734"/><path d="m339.829 310.345c-10.219-68.783-61.361-73.655-81.207-62.866-20.58 11.188-12.827 40.744-34.134 51.307s-43.581-24.899-60.935 3.772c-7.292 12.049-6.19 26.761-2.461 39.772 19.636 7.718 41.022 11.959 63.399 11.959 44.294 0 84.7-16.617 115.338-43.944z" fill="#67b734"/><path d="m224.491 336.289c-23.486 0-45.876-4.679-66.301-13.14-.027 6.466 1.135 13.014 2.902 19.181 19.636 7.718 41.022 11.959 63.399 11.959 44.294 0 84.7-16.617 115.338-43.944-.813-5.475-1.888-10.54-3.183-15.23-30.229 25.675-69.378 41.174-112.155 41.174z" fill="#549e25"/><path d="m367.654 153.888c-7.448 17.586-35.251 8.776-39.82 40.474-3.681 25.533 33.534 44.153 56.735 53.182 8.52-20.472 13.233-42.925 13.233-66.481 0-22.099-4.148-43.227-11.695-62.66-9.459 9.708-13.831 24.57-18.453 35.485z" fill="#67b734"/><path d="m148.775 265.867c23.451-7.531 7.999-36.68 26.18-45.757s27.374-22.389 5.785-50.253c-19.89-25.671-42.705-35.613-66.939-24.084-25.726 12.238-42.035 39.697-23.232 50.384 15.248 8.666 34.261 13.9 25.996 34.319s8.736 42.929 32.21 35.391z" fill="#67b734"/><path d="m377.416 244.624c2.483 1.063 4.885 2.038 7.152 2.92 8.52-20.472 13.233-42.925 13.233-66.481 0-3.001-.083-5.982-.234-8.945-1.346 26.119-8.486 50.703-20.151 72.506z" fill="#549e25"/></g><g><g><path d="m167.208 145.555c-3.318-2.492-8.025-1.821-10.515 1.495-2.491 3.317-1.821 8.024 1.495 10.515 5.58 4.19 11.136 9.835 16.516 16.779 8.375 10.808 12.068 19.735 10.682 25.813-1.098 4.812-5.512 9.002-13.893 13.187-12.008 5.995-13.632 17.758-14.938 27.21-1.414 10.241-2.511 15.701-10.218 18.176-7.571 2.432-14.677.85-19.498-4.342-5.098-5.489-6.47-13.782-3.496-21.128 4.23-10.45 3.213-19.483-3.021-26.845-4.876-5.759-12.195-9.518-19.273-13.154-2.338-1.202-4.756-2.444-6.988-3.712-3.119-1.773-4.458-3.993-4.341-7.197.39-10.711 14.381-23.882 27.12-29.943 5.933-2.823 11.856-4.159 17.589-4.027 4.142.109 7.596-3.163 7.704-7.31.109-4.146-3.164-7.595-7.31-7.704-8.122-.218-16.347 1.629-24.435 5.478-20.115 9.568-35.119 27.636-35.677 42.96-.323 8.858 3.914 16.245 11.929 20.801 2.508 1.426 5.07 2.741 7.546 4.013 15.673 8.052 19.216 11.166 15.234 21.005-5.151 12.726-2.633 27.243 6.413 36.984 6.241 6.72 14.634 10.261 23.67 10.261 3.734 0 7.579-.604 11.426-1.84 17.06-5.479 19.05-19.895 20.505-30.422 1.283-9.296 2.312-13.601 6.768-15.826 12.542-6.262 19.682-13.879 21.827-23.285 2.489-10.913-1.911-23.458-13.452-38.353-6.2-8.003-12.717-14.594-19.369-19.589z"/><path d="m397.128 353.643c46.106-46.106 71.488-107.414 71.471-172.631-.017-65.212-25.426-126.526-71.548-172.649-8.113-8.459-22.724-8.46-30.836-.001l-30.185 30.186c-30.769-24.138-69.522-38.548-111.58-38.548-99.831 0-181.049 81.18-181.049 180.965 0 42.068 14.437 80.829 38.617 111.595l-30.169 30.169c-8.459 8.114-8.46 22.723-.001 30.836 15.233 15.234 32.299 28.361 50.725 39.016 8.742 4.68 15.971-7.705 7.52-13.001-17.293-10.001-33.316-22.326-47.625-36.636-2.632-2.523-2.631-7.069.001-9.593l29.349-29.348c3.08 3.314 6.281 6.513 9.598 9.59l-18.906 18.905c-3.05 2.923-2.871 8.254.369 10.966 39.143 34.204 89.44 53.049 141.681 53.062 57.558 0 111.664-22.408 152.353-63.098 23.212-23.212 40.401-50.494 51.09-81.089 1.368-3.915-.698-8.198-4.613-9.566-3.919-1.37-8.199.697-9.567 4.613-9.937 28.445-25.929 53.82-47.53 75.422-37.852 37.853-88.187 58.699-141.784 58.699-45.855-.012-90.135-15.644-125.583-44.182l13.944-13.943c30.77 24.138 69.523 38.548 111.58 38.548 99.831 0 181.048-81.18 181.048-180.964 0-42.069-14.437-80.83-38.617-111.596l13.928-13.928c28.538 35.45 44.17 79.73 44.182 125.584.003 12.922-1.22 25.839-3.637 38.391-1.549 9.798 12.51 12.561 14.749 2.84 2.597-13.488 3.911-27.36 3.908-41.235-.013-52.185-18.857-102.483-53.062-141.627-2.71-3.241-8.044-3.418-10.965-.37l-18.902 18.902c-3.079-3.314-6.281-6.513-9.598-9.589l29.354-29.355c2.523-2.631 7.069-2.631 9.593.002 43.286 43.286 67.134 100.831 67.149 162.033.016 61.203-23.804 118.738-67.072 162.005-43.249 43.249-100.764 67.07-162.005 67.073-30.695-.009-60.418-5.93-88.345-17.597-3.829-1.603-8.226.206-9.825 4.034-1.599 3.827.207 8.226 4.034 9.824 27.424 11.458 56.464 17.703 86.475 18.625v30.574h-67.358c-17.944 0-32.543 14.598-32.543 32.543v16.393c0 4.148 3.362 7.51 7.51 7.51h236.046c4.148 0 7.51-3.362 7.51-7.51v-16.393c0-17.945-14.599-32.543-32.543-32.543h-67.358v-34.304c48.617-8.708 93.369-31.957 129.022-67.609zm-172.678-338.623c24.71 0 48.172 5.432 69.266 15.15-3.386 11.39-6.925 17.165-9.447 20.049-12.84 14.675-.674 28.517 7.376 37.677 6.988 7.952 11.457 13.542 9.961 18.61-1.545 5.231-6.939 7.527-15.611 10.84-7.921 3.026-16.899 6.456-22.01 14.685-5.205 8.38-1.409 19.295 2.261 29.851 1.581 4.547 4.871 14.008 3.74 16.109-.009.009-1.044.845-4.997.845-24.975 0-38.693-24.688-39.334-49.074-.321-12.192-4.089-21.201-11.519-27.541-12.201-10.412-33.664-12.703-71.769-7.66-17.472 2.316-31.417-5.854-41.51-24.274 30.42-33.901 74.554-55.267 123.593-55.267zm-57.201 321.737c-2.93-12.359-2.065-22.527 2.608-30.248 6.364-10.512 11.279-9.16 24.555-3.701 9.485 3.901 21.291 8.753 33.371 2.763 13.637-6.76 17.707-19.244 21.299-30.259 3-9.202 5.591-17.147 13.131-21.247 7.812-4.247 22.667-5.601 36.823 1.461 11.9 5.935 26.995 19.762 32.794 51.893-28.971 24.613-66.467 39.489-107.38 39.489-20.092.001-39.361-3.587-57.201-10.151zm177.337-41.364c-8.09-31.711-25.126-46.463-38.846-53.307-19.071-9.512-39.206-7.466-50.701-1.215-12.792 6.954-16.748 19.084-20.237 29.785-3.062 9.39-5.706 17.501-13.69 21.458-5.587 2.769-11.656.639-20.988-3.197-11.854-4.873-29.767-12.237-43.116 9.815-5.277 8.72-7.322 19.095-6.159 30.951-54.722-27.165-92.427-83.618-92.427-148.717 0-36.751 12.023-70.744 32.332-98.273 13.062 20.469 31.401 29.696 53.584 26.759 32.565-4.312 51.644-2.978 60.049 4.195 2.556 2.181 5.984 6.265 6.254 16.511.833 31.654 19.769 63.699 54.349 63.699 8.056 0 13.844-2.396 17.203-7.12 5.774-8.121 1.944-19.135-1.759-29.787-1.786-5.138-5.112-14.701-3.689-16.993 2.44-3.929 8.352-6.188 14.611-8.579 9.324-3.562 20.929-7.996 24.656-20.618 3.954-13.394-5.493-24.142-13.084-32.779-10.087-11.477-10.634-14.123-7.355-17.871 4.535-5.182 8.451-12.881 11.691-22.931 31.29 18.073 56.163 46.055 70.297 79.622-6.536 8.257-10.444 18.245-13.942 27.205-.947 2.424-1.841 4.714-2.733 6.819-1.793 4.233-5.716 6.079-12.497 8.979-10.379 4.438-24.593 10.515-27.893 33.406-2.22 15.403 5.67 37.72 54.191 58.342-7.659 16.216-17.859 31.007-30.101 43.841zm35.901-57.711c-9.493-4.068-20.712-9.685-29.687-16.544-11.449-8.75-16.643-17.425-15.438-25.785 2.096-14.542 9.525-17.718 18.932-21.74 7.585-3.244 16.182-6.919 20.423-16.932.974-2.301 1.906-4.688 2.893-7.215 1.873-4.797 3.882-9.928 6.319-14.689 4.259 14.668 6.55 30.164 6.55 46.187-.001 19.912-3.531 39.014-9.992 56.718zm-27.501 250.415v8.883h-221.026v-8.883c0-9.662 7.861-17.523 17.523-17.523h185.98c9.663 0 17.523 7.861 17.523 17.523zm-99.901-32.542h-21.225v-30.559c7.133-.208 14.212-.724 21.225-1.536z"/></g></g></g></svg>